HIERARCHY
ROOT Hips
{
 OFFSET 0.000000 0.000000 0.000000
 CHANNELS 6 Xposition Yposition Zposition Yrotation Xrotation Zrotation
 JOINT Chest
 {
  OFFSET 0.000000 11.395451 -0.039534
  CHANNELS 3 Yrotation Xrotation Zrotation
  JOINT Chest2
  {
   OFFSET 0.000000 9.398669 0.071813
   CHANNELS 3 Yrotation Xrotation Zrotation
   JOINT Chest3
   {
    OFFSET 0.000000 8.489801 0.000000
    CHANNELS 3 Yrotation Xrotation Zrotation
    JOINT Chest4
    {
     OFFSET 0.000000 8.489801 0.000000
     CHANNELS 3 Yrotation Xrotation Zrotation
     JOINT Neck
     {
      OFFSET 0.000000 12.404889 0.000000
      CHANNELS 3 Yrotation Xrotation Zrotation
      JOINT Head
      {
       OFFSET 0.000000 8.903270 0.092239
       CHANNELS 3 Yrotation Xrotation Zrotation
       End Site
       {
        OFFSET 0.000000 17.592497 0.007158
       }
      }
     }
     JOINT RightCollar
     {
      OFFSET -3.196775 6.966722 0.000000
      CHANNELS 3 Yrotation Xrotation Zrotation
      JOINT RightShoulder
      {
       OFFSET -15.955896 0.000000 0.000000
       CHANNELS 3 Yrotation Xrotation Zrotation
       JOINT RightElbow
       {
        OFFSET -24.792472 0.000000 0.000000
        CHANNELS 3 Yrotation Xrotation Zrotation
        JOINT RightWrist
        {
         OFFSET -20.900115 0.000000 0.025002
         CHANNELS 3 Yrotation Xrotation Zrotation
         End Site
         {
          OFFSET -16.056692 0.000000 0.000000
         }
        }
       }
      }
     }
     JOINT LeftCollar
     {
      OFFSET 3.196775 6.966722 0.000000
      CHANNELS 3 Yrotation Xrotation Zrotation
      JOINT LeftShoulder
      {
       OFFSET 15.955896 0.000000 0.000000
       CHANNELS 3 Yrotation Xrotation Zrotation
       JOINT LeftElbow
       {
        OFFSET 24.792472 0.000000 0.000000
        CHANNELS 3 Yrotation Xrotation Zrotation
        JOINT LeftWrist
        {
         OFFSET 20.900115 0.000000 0.025002
         CHANNELS 3 Yrotation Xrotation Zrotation
         End Site
         {
          OFFSET 16.056692 0.000000 0.000000
         }
        }
       }
      }
     }
    }
   }
  }
 }
 JOINT RightHip
 {
  OFFSET -9.568995 0.193718 0.019767
  CHANNELS 3 Yrotation Xrotation Zrotation
  JOINT RightKnee
  {
   OFFSET 0.000000 -56.649296 0.015402
   CHANNELS 3 Yrotation Xrotation Zrotation
   JOINT RightAnkle
   {
    OFFSET 0.000000 -41.365147 0.021264
    CHANNELS 3 Yrotation Xrotation Zrotation
    JOINT RightToe
    {
     OFFSET 0.000000 -7.465940 17.672538
     CHANNELS 3 Yrotation Xrotation Zrotation
     End Site
     {
      OFFSET 0.000000 -1.736315 7.837145
     }
    }
   }
  }
 }
 JOINT LeftHip
 {
  OFFSET 9.568995 0.193718 0.019767
  CHANNELS 3 Yrotation Xrotation Zrotation
  JOINT LeftKnee
  {
   OFFSET 0.000000 -56.649296 0.015402
   CHANNELS 3 Yrotation Xrotation Zrotation
   JOINT LeftAnkle
   {
    OFFSET 0.000000 -41.365147 0.021264
    CHANNELS 3 Yrotation Xrotation Zrotation
    JOINT LeftToe
    {
     OFFSET 0.000000 -7.465940 17.672538
     CHANNELS 3 Yrotation Xrotation Zrotation
     End Site
     {
      OFFSET 0.000000 -1.736315 7.837145
     }
    }
   }
  }
 }
}
MOTION
Frames: 16
Frame Time: 0.016667
165.111772 103.007565 401.743659 -11.247289 -3.490690 2.146455 -6.546825 6.361573 0.700765 -2.914707 2.817305 0.400833 -2.914707 2.817305 0.400833 -2.187440 2.111126 0.314019 -7.439307 16.137013 2.458266 -14.701458 -5.548385 7.211664 2.230267 -5.853179 8.055129 1.611663 -10.862430 51.971869 40.141612 -39.941081 36.864836 -11.807688 -19.954419 1.564295 1.182816 0.191336 -4.912690 -4.252272 -24.344101 -50.231915 -24.084051 -42.045893 -48.596898 21.366006 -21.484020 -3.370774 -11.359496 -14.676734 5.417172 -7.457432 7.471866 -0.209723 -4.257734 2.565217 -5.105487 0.000000 0.000000 0.000000 3.583818 7.699823 0.783347 15.613315 27.769935 0.624106 15.643537 -19.639771 -8.660134 0.277977 -9.012294 -3.596874
164.802880 103.032216 403.102924 -12.217312 -3.673795 2.077955 -6.745450 6.408949 0.949408 -3.006235 2.834369 0.514562 -3.006200 2.834297 0.514568 -2.256555 2.123196 0.399818 -7.445307 16.162370 2.392280 -14.686544 -5.510415 7.088235 2.363259 -5.746746 7.929600 0.885342 -10.993125 52.054849 40.399959 -39.673521 36.779870 -11.918711 -19.631423 1.672945 1.225706 0.246036 -4.905415 -3.246386 -24.399371 -51.408149 -24.763242 -41.158505 -47.857331 21.430267 -21.516914 -3.906072 -7.689689 -15.042192 4.837077 -9.143113 9.274227 -0.235866 -5.204478 2.554185 -5.061803 -0.000000 -0.000000 0.000000 3.758765 6.487399 1.703982 15.524858 32.194802 0.636349 16.112426 -17.252740 -9.344973 0.553679 -13.949168 -4.501099
164.499174 103.142645 404.420147 -13.434570 -3.842444 2.048197 -6.858241 6.480885 1.167698 -3.059380 2.862890 0.614013 -3.059350 2.862827 0.614007 -2.296896 2.144063 0.474763 -7.444208 16.229675 2.362790 -14.666561 -5.390733 7.024320 2.578834 -5.515987 7.717651 0.088807 -11.256942 52.273589 40.583825 -39.356072 36.616831 -11.997654 -19.260956 1.854122 1.192231 0.297330 -4.838471 -2.030222 -24.370767 -52.770001 -25.688615 -40.192456 -46.876971 21.543681 -21.552018 -4.499973 -3.202981 -15.645320 3.908928 -12.139472 11.606254 -0.239969 -5.303139 1.848886 -4.693637 0.000000 -0.000000 -0.000000 4.375524 4.872313 2.844645 15.066409 37.134809 0.569810 16.404646 -13.781971 -9.931641 1.009119 -19.814961 -5.776171
164.139063 103.265531 405.703696 -14.482201 -3.957762 1.979426 -7.037344 6.524367 1.369764 -3.141783 2.878755 0.706840 -3.141783 2.878755 0.706840 -2.359177 2.155505 0.544846 -7.440902 16.337512 2.354231 -14.645113 -5.193416 6.992766 2.773632 -5.306349 7.527202 -0.587755 -11.379633 52.403081 40.801294 -39.082788 36.543306 -12.040184 -19.030635 2.008227 1.214696 0.411447 -4.768441 -1.375800 -24.211229 -53.706204 -26.411069 -39.638266 -46.103315 21.600579 -21.558466 -4.946104 -0.832976 -15.800937 3.552449 -13.611026 13.328441 -0.253849 -5.063822 1.116511 -4.459535 0.000000 0.000000 0.000000 4.729585 2.955285 3.971290 15.115935 42.099365 0.946182 15.937129 -9.918846 -10.048547 1.506994 -24.388320 -7.475442
163.672314 103.386171 406.968286 -15.103878 -4.005062 1.833201 -7.404716 6.501971 1.557531 -3.307433 2.864798 0.795011 -3.307457 2.864889 0.795033 -2.483827 2.144518 0.611699 -7.428390 16.523466 2.357794 -14.601891 -4.851393 6.969878 2.936205 -5.142406 7.393860 -1.120934 -11.286571 52.357683 41.077023 -38.847032 36.692139 -12.078937 -19.036103 2.100108 1.375663 0.678299 -4.700619 -1.709912 -23.823522 -53.925233 -26.853432 -39.863345 -45.626595 21.581204 -21.508518 -5.139171 -2.451187 -15.125728 4.315168 -11.991821 13.846484 -0.278299 -4.550462 0.568781 -4.574168 0.000000 0.000000 0.000000 4.304962 0.653026 5.091807 16.858177 47.139896 2.529396 14.413635 -5.227842 -9.485748 1.914328 -27.302960 -9.979575
163.149159 103.519267 408.199202 -15.555786 -3.999925 1.644326 -7.838112 6.450332 1.731836 -3.502083 2.837465 0.877573 -3.502110 2.837583 0.877592 -2.630149 2.123338 0.674366 -7.415821 16.751150 2.378326 -14.560252 -4.429883 6.973105 3.080332 -4.999028 7.283757 -1.532390 -11.060746 52.205152 41.374682 -38.658064 36.937862 -12.088099 -19.180775 2.160165 1.590637 1.009988 -4.634334 -2.598200 -23.311125 -53.734822 -27.166743 -40.512678 -45.297974 21.514858 -21.435401 -5.183194 -6.150017 -13.942564 5.576652 -8.854843 13.744131 -0.334030 -3.703687 -0.006323 -4.833946 -0.000000 -0.000000 0.000000 3.596039 -1.937641 6.232911 19.680627 52.163967 5.210372 12.263457 -0.187472 -8.470237 2.016810 -28.991696 -12.658658
162.658708 103.635603 409.360656 -16.189526 -3.951517 1.442772 -8.123086 6.427054 1.905573 -3.630856 2.822864 0.958178 -3.630856 2.822864 0.958178 -2.727027 2.111551 0.735302 -7.429069 16.907518 2.425623 -14.583951 -4.132543 7.044093 3.144856 -4.946067 7.206573 -1.697986 -10.675429 51.933775 41.696626 -38.633924 37.071342 -11.977757 -19.363762 2.186843 1.742692 1.203155 -4.613501 -3.522417 -22.945192 -53.407643 -27.257059 -41.012674 -45.198915 21.369400 -21.400735 -5.183131 -9.275847 -12.802501 6.640716 -6.050549 13.648368 -0.362883 -2.851879 -0.571088 -5.039078 0.000000 -0.000000 0.000000 3.453698 -4.464327 7.157419 21.461935 56.548788 7.776692 10.106459 3.164428 -7.346033 1.506812 -28.494892 -13.905638
162.221807 103.714619 410.430451 -17.091173 -3.845490 1.196621 -8.156215 6.453075 2.099172 -3.648286 2.830809 1.044963 -3.648273 2.830744 1.044961 -2.740493 2.116870 0.800509 -7.498814 16.924465 2.531335 -14.747017 -4.076383 7.259706 3.064314 -5.072975 7.179606 -1.524737 -9.983061 51.466002 42.090684 -38.878420 37.009616 -11.667436 -19.585241 2.162448 1.783578 1.119517 -4.668941 -4.479161 -22.821330 -52.855547 -26.912523 -41.166696 -45.536454 21.068266 -21.452531 -5.152454 -11.215959 -11.940376 7.422305 -4.004769 13.748494 -0.291876 -2.089470 -1.113625 -5.122107 0.000000 -0.000000 0.000000 4.395203 -6.880580 7.758325 20.318176 60.251696 8.818545 8.062577 3.660997 -5.996941 0.205173 -24.443175 -13.197467
161.817609 103.776875 411.430783 -18.175127 -3.699615 0.935058 -8.039888 6.505714 2.290777 -3.599518 2.851504 1.129269 -3.599517 2.851498 1.129275 -2.704364 2.132062 0.863630 -7.589899 16.871214 2.670801 -14.968288 -4.141813 7.553799 2.905681 -5.289608 7.192272 -1.114731 -9.129607 50.881498 42.507447 -39.285132 36.832181 -11.237773 -19.849304 2.106160 1.765733 0.892772 -4.760252 -5.476315 -22.823595 -52.149638 -26.330407 -41.183612 -46.131611 20.686209 -21.539637 -5.072072 -12.615858 -11.182655 8.072856 -2.282150 13.857874 -0.166070 -1.320497 -1.644338 -5.148808 0.000000 0.000000 -0.000000 5.944521 -9.271394 8.064518 17.127711 63.423657 8.566492 6.063270 2.554673 -4.424572 -1.433438 -18.060452 -11.935006
161.472691 103.854839 412.392457 -19.534724 -3.569787 0.780406 -7.868630 6.576952 2.428413 -3.525717 2.881687 1.189101 -3.525717 2.881687 1.189101 -2.649352 2.154502 0.908310 -7.628595 16.839859 2.770860 -15.076897 -4.179738 7.755081 2.805831 -5.396455 7.208961 -0.629722 -8.526794 50.406924 42.803454 -39.654272 36.576195 -10.839150 -20.061881 2.076093 1.723158 0.726729 -4.823590 -6.023200 -22.940561 -51.779289 -25.992073 -41.094918 -46.502532 20.415602 -21.575777 -5.003710 -12.793216 -10.638058 8.402391 -1.424542 14.051495 -0.045084 -0.589779 -2.159942 -5.118017 0.000000 0.000000 0.000000 7.496301 -11.485054 8.046755 13.631927 65.834739 7.929735 4.387737 1.408464 -3.295536 -2.661641 -12.286552 -10.951060
161.207765 103.959255 413.313834 -21.272572 -3.493147 0.797494 -7.644500 6.683009 2.478914 -3.427316 2.929055 1.209978 -3.427283 2.928990 1.209957 -2.575697 2.190013 0.923731 -7.580704 16.863315 2.813013 -14.999943 -4.136640 7.813529 2.827781 -5.255327 7.199846 -0.056160 -8.361585 50.138108 42.922169 -39.951218 36.202170 -10.490220 -20.193531 2.094046 1.654676 0.708220 -4.828774 -5.821638 -23.287034 -52.024635 -26.110528 -40.825834 -46.418245 20.364116 -21.514676 -4.978132 -10.906531 -10.477126 8.245455 -2.090642 14.440551 0.066430 0.032319 -2.683041 -5.029594 0.000000 -0.000000 -0.000000 9.091551 -13.476273 7.609101 10.607332 67.379607 7.701718 3.144860 0.660101 -3.124218 -3.236324 -7.896729 -10.082834
161.002118 104.079378 414.196552 -23.285284 -3.423189 0.921779 -7.366548 6.804890 2.472564 -3.304325 2.984841 1.205035 -3.304283 2.984788 1.205016 -2.483526 2.232136 0.919730 -7.481944 16.907673 2.813074 -14.812630 -4.067873 7.774734 2.906569 -5.003601 7.184719 0.600989 -8.441057 49.983769 42.926061 -40.209370 35.747642 -10.172822 -20.274668 2.142329 1.559807 0.751729 -4.810321 -5.166489 -23.771067 -52.603046 -26.451997 -40.439456 -46.113073 20.428004 -21.408013 -4.973417 -7.816723 -10.555947 7.798373 -3.616394 14.926611 0.188000 0.615687 -3.192298 -4.882155 -0.000000 0.000000 -0.000000 10.731485 -15.283764 6.874958 7.533997 68.197798 7.397674 2.247870 -0.230796 -3.465744 -3.385970 -4.050996 -9.046709
160.820192 104.215441 415.076327 -25.356349 -3.289423 1.079688 -7.124936 6.883423 2.455270 -3.197241 3.021419 1.195021 -3.197241 3.021419 1.195021 -2.403298 2.259898 0.911907 -7.365116 16.962920 2.746975 -14.568520 -3.991483 7.606772 2.988159 -4.854426 7.203476 1.160207 -8.610331 49.890067 42.849561 -40.329179 35.366797 -9.981222 -20.297679 2.219498 1.472157 0.802984 -4.804244 -4.459013 -24.089128 -53.159294 -26.833287 -40.173185 -45.786169 20.483167 -21.318304 -4.975993 -5.402002 -10.540311 7.420266 -4.561690 15.265344 0.297062 1.325349 -3.619079 -4.672893 -0.000000 -0.000000 0.000000 11.722151 -16.878893 6.216183 4.791464 68.400545 6.649926 1.650162 -1.192809 -3.710409 -3.106389 -1.309262 -7.667125
160.648048 104.372721 415.966697 -27.382207 -3.065583 1.244486 -6.978913 6.887742 2.442306 -3.132342 3.024418 1.187201 -3.132374 3.024471 1.187218 -2.354645 2.262380 0.905758 -7.231732 17.036071 2.585490 -14.259794 -3.897664 7.255594 3.065355 -4.912228 7.290924 1.542600 -8.817276 49.868939 42.681021 -40.246243 35.116916 -9.972812 -20.242554 2.321615 1.399774 0.854173 -4.825196 -3.791896 -24.100216 -53.600834 -27.251587 -40.135999 -45.453004 20.511643 -21.266039 -4.982102 -4.445036 -10.293623 7.259117 -4.286120 15.320888 0.387818 2.160024 -3.923395 -4.387518 0.000000 0.000000 -0.000000 11.617481 -18.255946 5.799349 2.945392 67.959050 5.665665 1.367309 -2.193204 -3.609318 -2.146100 -0.154151 -5.278834
160.499625 104.545941 416.854125 -29.465184 -2.775140 1.434952 -6.868678 6.848412 2.423167 -3.082982 3.007831 1.176517 -3.082997 3.007900 1.176535 -2.317531 2.250110 0.897421 -7.081768 17.115216 2.356438 -13.897437 -3.802474 6.774300 3.147261 -5.068070 7.422845 1.827338 -9.111453 49.919826 42.444872 -40.019162 34.927033 -10.086280 -20.123283 2.448050 1.334260 0.911641 -4.859588 -3.077745 -23.944076 -54.027540 -27.725446 -40.216406 -45.082219 20.530256 -21.230041 -4.995045 -4.163324 -9.963292 7.158942 -3.434378 15.216923 0.464246 3.120587 -4.144693 -4.036995 0.000000 0.000000 0.000000 10.830442 -19.433364 5.516530 1.957533 66.843198 4.834205 1.359255 -3.207125 -3.400813 -0.845583 -0.036179 -2.236487
160.381188 104.719503 417.733706 -31.697347 -2.426533 1.642170 -6.705270 6.800514 2.406011 -3.010036 2.987527 1.165781 -3.010036 2.987527 1.165781 -2.262728 2.234979 0.888889 -6.944393 17.162835 2.123657 -13.560788 -3.762393 6.294713 3.205700 -5.216275 7.553749 2.069335 -9.494784 49.971764 42.223784 -39.732639 34.763994 -10.238085 -19.982910 2.601249 1.285339 0.941888 -4.897472 -2.453697 -23.737967 -54.365347 -28.115439 -40.330559 -44.794408 20.465353 -21.207542 -5.007767 -4.092713 -9.668871 7.033591 -2.494175 15.092079 0.521793 4.375535 -4.333463 -3.658510 -0.000000 0.000000 -0.000000 9.939285 -20.419436 5.325175 1.311059 65.120370 4.064158 1.451532 -4.142574 -3.214055 0.000000 0.000000 0.000000
